<?xml version="1.0" encoding="utf-8"?>
<!-- Generator: Adobe Illustrator 16.0.0, SVG Export Plug-In . SVG Version: 6.00 Build 0)  -->
<!DOCTYPE svg PUBLIC "-//W3C//DTD SVG 1.1//EN" "http://www.w3.org/Graphics/SVG/1.1/DTD/svg11.dtd">
<svg version="1.1" id="Calque_1" xmlns="http://www.w3.org/2000/svg" xmlns:xlink="http://www.w3.org/1999/xlink" x="0px" y="0px"
	 width="432px" height="432px" viewBox="0 0 432 432" enable-background="new 0 0 432 432" xml:space="preserve">
<g>
	<polygon points="160.475,81.588 167.525,81.588 167.525,41.949 174.982,41.949 174.982,34.863 152.98,34.863 152.98,41.949 
		160.475,41.949 	"/>
	<path d="M187.697,63.986h4.063c0.222,0,0.436,0,0.632,0l4.273,17.602h7.623l-5.217-20.398c2.508-2.286,3.764-5.083,3.764-8.39
		v-6.788c0-3.38-0.808-6.016-2.423-7.905c-1.841-2.162-4.726-3.245-8.652-3.245h-11.113v46.726h7.05V63.986z M187.697,42.06h4.252
		c2.683,0,4.024,1.357,4.024,4.066v6.824c0,1.119-0.389,2.077-1.175,2.871c-0.782,0.795-1.734,1.192-2.85,1.192h-4.252V42.06z"/>
	<path d="M219.013,70.848h7.358l1.648,10.74h7.409l-7.832-46.726h-9.694l-7.943,46.726h7.34L219.013,70.848z M222.713,45.566
		l2.611,18.42h-5.222L222.713,45.566z"/>
	<rect x="241.355" y="34.863" width="7.051" height="46.726"/>
	<polygon points="261.754,51.644 271.449,81.588 279.016,81.588 279.016,34.827 271.971,34.827 271.971,66.253 262.617,34.827 
		254.703,34.827 254.703,81.588 261.754,81.588 	"/>
	<rect x="139.5" y="97.868" width="7.05" height="46.725"/>
	<polygon points="159.898,114.649 169.594,144.593 177.16,144.593 177.16,97.831 170.115,97.831 170.115,129.258 160.762,97.831 
		152.849,97.831 152.849,144.593 159.898,144.593 	"/>
	<path d="M201.102,98.951c-1.791-1.12-3.939-1.679-6.452-1.679c-2.606,0-4.798,0.66-6.563,1.978
		c-2.858,2.19-4.285,5.412-4.285,9.667c0,2.363,0.521,4.553,1.564,6.569c0.969,1.791,2.623,3.82,4.96,6.083
		c2.786,2.639,4.87,4.617,6.265,5.935c1.764,1.917,2.648,3.846,2.648,5.786c0,1.344-0.234,2.375-0.709,3.098
		c-0.92,1.467-2.149,2.228-3.691,2.277c-1.095,0.049-2.064-0.389-2.91-1.312c-1.141-1.224-1.863-3.198-2.162-5.922l-6.713,0.483
		c0.15,2.487,0.666,4.694,1.547,6.621c0.885,1.927,2.086,3.448,3.602,4.567c1.813,1.367,4.103,2.051,6.858,2.051
		c1.495,0,2.798-0.175,3.918-0.523c2.089-0.646,3.704-1.752,4.845-3.318c1.744-2.312,2.586-5.095,2.539-8.353
		c-0.025-1.316-0.372-2.81-1.047-4.474c-0.273-0.673-0.633-1.406-1.081-2.201c-0.944-1.69-2.286-3.405-4.025-5.146
		c-0.521-0.547-1.603-1.504-3.243-2.871c-1.393-1.143-2.439-2.139-3.137-2.982c-1.836-2.214-2.756-4.389-2.756-6.527
		c0-1.368,0.274-2.51,0.82-3.431c0.672-1.143,1.65-1.716,2.945-1.716c1.217,0,2.148,0.387,2.799,1.158
		c0.893,1.068,1.439,2.56,1.64,4.474l6.747-1.23c-0.175-2.038-0.688-3.841-1.547-5.407
		C203.618,101.038,202.494,99.82,201.102,98.951z"/>
	<path d="M218.367,97.868l-7.942,46.725h7.341l1.713-10.74h7.357l1.65,10.74h7.408l-7.832-46.725H218.367z M220.568,126.991
		l2.61-18.42l2.61,18.42H220.568z"/>
	<polygon points="241.821,144.593 248.871,144.593 248.871,114.649 258.566,144.593 266.133,144.593 266.133,97.831 259.088,97.831 
		259.088,129.258 249.734,97.831 241.821,97.831 	"/>
	<polygon points="292.501,104.916 292.501,97.831 272.436,97.831 272.436,144.593 292.501,144.593 292.501,137.508 279.486,137.508 
		279.486,124.754 288.992,124.754 288.992,117.67 279.486,117.67 279.486,104.916 	"/>
	<path d="M193.18,163.539c-2.188,2.177-3.281,4.817-3.281,7.926v25.504c0,3.083,1.08,5.719,3.246,7.907
		c2.162,2.188,4.795,3.282,7.905,3.282c3.081,0,5.717-1.087,7.905-3.262c2.188-2.177,3.281-4.817,3.281-7.926v-25.504
		c0-3.083-1.09-5.719-3.265-7.907c-2.175-2.188-4.815-3.281-7.922-3.281C197.99,160.276,195.367,161.364,193.18,163.539z
		 M204.891,171.315v25.582c0,1.117-0.393,2.068-1.175,2.852c-0.786,0.782-1.734,1.175-2.854,1.175c-1.119,0-2.076-0.393-2.871-1.175
		c-0.795-0.784-1.191-1.735-1.191-2.852v-25.582c0-1.119,0.396-2.07,1.191-2.854c0.795-0.782,1.752-1.173,2.871-1.173
		c1.12,0,2.068,0.391,2.854,1.173C204.498,169.245,204.891,170.196,204.891,171.315z"/>
	<path d="M218.461,160.872v46.726h7.051v-17.602h4.063c0.222,0,0.436,0,0.632,0l4.273,17.602h7.623l-5.217-20.398
		c2.508-2.286,3.764-5.083,3.764-8.39v-6.788c0-3.38-0.808-6.016-2.423-7.904c-1.841-2.162-4.726-3.246-8.652-3.246H218.461z
		 M233.788,172.135v6.824c0,1.12-0.389,2.077-1.175,2.872c-0.782,0.794-1.734,1.192-2.85,1.192h-4.252V168.07h4.252
		C232.447,168.07,233.788,169.426,233.788,172.135z"/>
	<path d="M153.301,250.206c2.508-2.285,3.765-5.082,3.765-8.39v-6.787c0-3.38-0.808-6.016-2.423-7.904
		c-1.842-2.162-4.725-3.245-8.652-3.245h-11.113v46.725h7.05v-17.602h4.063c0.223,0,0.436,0,0.633,0l4.272,17.602h7.623
		L153.301,250.206z M150.203,241.966c0,1.119-0.389,2.076-1.174,2.871c-0.783,0.795-1.736,1.192-2.851,1.192h-4.252v-14.953h4.252
		c2.683,0,4.024,1.356,4.024,4.065V241.966z"/>
	<polygon points="184.625,230.927 184.625,223.842 164.561,223.842 164.561,270.604 184.625,270.604 184.625,263.52 171.609,263.52 
		171.609,250.766 181.117,250.766 181.117,243.681 171.609,243.681 171.609,230.927 	"/>
	<polygon points="222.17,270.604 222.17,223.842 212.454,223.842 206.152,257.433 199.58,223.842 189.467,223.842 189.467,270.604 
		196.517,270.604 196.517,241.295 203.34,270.604 209.006,270.604 215.125,241.22 215.125,270.604 	"/>
	<path d="M236.006,223.879l-7.943,46.725h7.341l1.713-10.739h7.358l1.648,10.739h7.41l-7.832-46.725H236.006z M238.206,253.002
		l2.61-18.42l2.611,18.42H238.206z"/>
	<rect x="259.459" y="223.879" width="7.051" height="46.725"/>
	<polygon points="290.078,223.842 290.078,255.269 280.725,223.842 272.812,223.842 272.812,270.604 279.861,270.604 
		279.861,240.661 289.557,270.604 297.124,270.604 297.124,223.842 	"/>
	<polygon points="192.23,333.609 192.23,293.97 199.688,293.97 199.688,286.883 177.686,286.883 177.686,293.97 185.181,293.97 
		185.181,333.609 	"/>
	<polygon points="220.906,333.609 227.951,333.609 227.951,286.883 220.906,286.883 220.906,306.722 212.402,306.722 
		212.402,286.883 205.353,286.883 205.353,333.609 212.402,333.609 212.402,313.809 220.906,313.809 	"/>
	<polygon points="234.254,333.609 254.318,333.609 254.318,326.525 241.305,326.525 241.305,313.77 250.811,313.77 250.811,306.686 
		241.305,306.686 241.305,293.932 254.318,293.932 254.318,286.847 234.254,286.847 	"/>
	<path d="M178.263,378.305c-0.944-1.69-2.286-3.406-4.024-5.146c-0.521-0.547-1.603-1.505-3.244-2.872
		c-1.393-1.143-2.439-2.139-3.135-2.982c-1.838-2.213-2.756-4.388-2.756-6.526c0-1.367,0.272-2.51,0.82-3.432
		c0.67-1.143,1.648-1.715,2.943-1.715c1.218,0,2.149,0.387,2.799,1.158c0.893,1.067,1.439,2.559,1.641,4.473l6.746-1.23
		c-0.175-2.037-0.688-3.841-1.547-5.407c-0.858-1.565-1.982-2.783-3.375-3.653c-1.79-1.119-3.939-1.679-6.452-1.679
		c-2.606,0-4.798,0.66-6.563,1.979c-2.858,2.189-4.286,5.411-4.286,9.667c0,2.363,0.521,4.553,1.564,6.569
		c0.97,1.79,2.623,3.82,4.961,6.083c2.785,2.638,4.871,4.616,6.264,5.935c1.765,1.916,2.648,3.846,2.648,5.785
		c0,1.344-0.234,2.376-0.709,3.098c-0.918,1.468-2.148,2.229-3.691,2.277c-1.094,0.05-2.064-0.389-2.91-1.312
		c-1.141-1.225-1.863-3.198-2.162-5.922l-6.712,0.482c0.149,2.487,0.666,4.693,1.547,6.621c0.884,1.927,2.085,3.448,3.603,4.567
		c1.811,1.367,4.101,2.051,6.857,2.051c1.495,0,2.799-0.175,3.918-0.523c2.089-0.646,3.704-1.752,4.846-3.317
		c1.742-2.312,2.584-5.096,2.537-8.354c-0.025-1.316-0.371-2.81-1.047-4.474C179.07,379.833,178.711,379.1,178.263,378.305z"/>
	<path d="M192.398,349.888l-7.944,46.726h7.341l1.713-10.739h7.358l1.649,10.739h7.408l-7.831-46.726H192.398z M194.598,379.012
		l2.611-18.42l2.61,18.42H194.598z"/>
	<polygon points="232.537,383.443 225.965,349.852 215.852,349.852 215.852,396.614 222.901,396.614 222.901,367.304 
		229.725,396.614 235.391,396.614 241.51,367.23 241.51,396.614 248.555,396.614 248.555,349.852 238.839,349.852 	"/>
	<polygon points="254.857,396.614 274.923,396.614 274.923,389.53 261.908,389.53 261.908,376.775 271.414,376.775 271.414,369.691 
		261.908,369.691 261.908,356.936 274.923,356.936 274.923,349.852 254.857,349.852 	"/>
</g>
</svg>
